<?xml version="1.0" standalone="yes"?>
<svg xmlns="http://www.w3.org/2000/svg" width="512" height="321">
<path style="fill:#010101; stroke:none;" d="M0 0L0 321L512 321L512 0L0 0z"/>
<path style="fill:#e3e8ea; stroke:none;" d="M34 122L44.7755 122.218L50.5633 113.318L63 111C62.0476 118.073 63.732 129.719 74.6968 122.817C79.3315 119.9 80.0587 109.684 82.6798 105C88.1292 95.2621 96.8404 87.916 107 83.4398C135.491 70.8871 176.39 83.9624 186.48 115C191.66 130.935 187.594 146.324 184 162L185 162C190.686 144.219 193.28 123.299 184.623 106C170.868 78.5096 130.212 70.5675 104 82.8897C94.9854 87.1274 87.4243 93.5737 82.0934 102C75.0939 113.064 78.3881 122 63 122L64 110C60.1073 110 52.8394 108.609 49.564 111.028C43.0623 115.829 46.063 122.625 35 120C41.3868 100.372 48.552 83.4152 62.7145 68.0394C99.116 28.5194 170.093 29.0118 206.829 68.0394C241.557 104.933 238.866 174.209 201.996 208.91C190.361 219.861 176.209 228.133 161 232.971C131.842 242.248 98.259 238 68 238L68 232C64.308 241.119 77.6786 239 83 239C101.611 239 120.408 239.775 139 238.961C185.13 236.941 223.362 200.718 230.562 156C237.295 114.178 224.434 70.0589 185 49.3202C135.667 23.3755 69.1415 39.5009 43.7562 91C39.1377 100.37 34.219 111.446 34 122z"/>
<path style="fill:#f29224; stroke:none;" d="M35 120C46.549 123.412 43.368 115.507 50.3032 111.028C53.7319 108.814 60.0783 110 64 110L63 122C66.1538 122 71.6284 123.025 74.2724 120.972C79.683 116.772 81.5267 102.996 86.4645 97.0008C96.198 85.1836 111.831 78.1282 127 77.0895C133.622 76.636 140.611 77.9871 147 79.6296C195.257 92.0351 202.283 148.566 183.514 188C173.893 208.215 156.732 219.701 144 237C216.75 231.21 254.985 139.374 216.91 80C201.677 56.2458 175.26 43.4847 148 39.5795C132.909 37.4175 117.642 38.2581 103 42.7207C87.2663 47.5161 72.1395 57.1033 60.9144 69.0147C47.736 82.9986 39.3145 101.351 35 120z"/>
<path style="fill:#e3e8ea; stroke:none;" d="M304 42L304 43L312.802 45.3179L311.13 62L304 110C310.442 96.5957 310.286 75.7633 312.576 61C313.242 56.7044 316.124 48.3927 314.357 44.3179C312.894 40.9424 306.931 42.0003 304 42M408 42L408 43C425.767 43.002 416.546 59.2902 416 72C418.374 67.5351 423.228 47.9923 419.958 43.7423C417.726 40.8418 411.198 42 408 42M435 99L436 99C437.591 78.8377 439.215 51.3162 462 44.2207C470.629 41.5334 481.05 43 490 43L489 54L490 54L491 42C480.734 42 468.811 40.3082 459 43.8001C437.842 51.3306 435.836 79.537 435 99M265 67L266 67C268.205 54.1927 279.018 44.5932 292 44C279.162 38.7657 265.975 55.8987 265 67z"/>
<path style="fill:#6b96b7; stroke:none;" d="M292 43L292 44L313 44L312 54C318.455 39.6211 301.122 43 292 43z"/>
<path style="fill:#e3e8ea; stroke:none;" d="M369 82L370 82C370.743 64.7023 377.111 45.9934 397 44C376.968 36.2 369.268 69.0197 369 82z"/>
<path style="fill:#6b96b7; stroke:none;" d="M397 43L397 44C402.958 44 415.45 41.5234 419 47C420.434 40.6138 401.262 43 397 43M458 45L458 46L480 44C473.505 41.2744 464.553 43.1584 458 45z"/>
<path style="fill:#1b6db2; stroke:none;" d="M414 237C425.302 237 439.242 239.315 449 232.362C461.363 223.553 462.389 208.665 465 195C470.82 164.544 474.751 133.607 479.754 103L486.754 60C487.357 56.3075 490.415 47.8645 487.958 44.6034C485.279 41.0496 473.988 43.9546 470 44.0038C438.189 44.3965 439.783 79.8268 435.614 103C432.388 120.934 430.42 139.104 427 157C421.965 183.346 417.435 210.401 414 237z"/>
<path style="fill:#6b96b7; stroke:none;" d="M488 43L489 48L490 48L488 43M286 44L286 45L289 45L286 44z"/>
<path style="fill:#1b6db2; stroke:none;" d="M240 236C248.219 236 258.011 237.45 266 235.39C288.15 229.679 288.595 200.172 291.272 182C291.979 177.197 291.751 166.142 295.589 162.782C299.812 159.084 316.32 162 322 162C329.926 162 338.107 162.578 346 161.83C348.813 161.564 353.065 160.109 355.307 162.604C358.493 166.151 354.727 176.759 354.13 181C351.581 199.126 346.785 217.731 346 236C359.218 236 374.645 238.688 384.532 227.826C396.658 214.506 396.654 189.03 399 172C404.814 129.79 417.173 86.5403 419 44C411.144 44 402.744 43.1578 395 44.6188C369.543 49.4215 371.248 77.8704 367.92 98C367.103 102.938 367.401 112.865 363.486 116.397C358.628 120.779 343.263 118 337 118L313 118C310.249 117.999 305.756 118.71 303.693 116.397C300.485 112.799 304.047 101.326 304.754 97C307.615 79.49 311.604 61.6908 313 44C298.536 44 282.691 41.8065 272.213 54.0038C261.99 65.9043 263.088 89.0819 260.586 104C256.572 127.941 253.608 152.109 249.385 176C245.952 195.42 240.407 216.281 240 236z"/>
<path style="fill:#6b96b7; stroke:none;" d="M392 44L392 45L396 45L392 44M283.667 45.3333L284.333 45.6667L283.667 45.3333M390 45L391 46L390 45M280 46L280 47L283 47L280 46M387.667 46.3333L388.333 46.6667L387.667 46.3333M456 46L457 47L456 46M279 47L280 48L279 47M385.667 47.3333L386.333 47.6667L385.667 47.3333M454 47L455 48L454 47M277 48L278 49L277 48M383.667 48.3333L384.333 48.6667L383.667 48.3333M452 48L453 49L452 48M276 49L277 50L276 49M382 49L383 50L382 49M418 49L418 53L419 53L418 49M451 49L452 50L451 49M488 49L486 67L487 67L488 49M275 50L276 51L275 50M381 50L382 51L381 50M450 50L451 51L450 50M274 51L275 52L274 51M380 51L381 52L380 51M449 51L450 52L449 51M272 52L272 54L274 52L272 52M379 52L380 53L379 52M448 52L449 53L448 52M378 53L379 54L378 53M447 53L448 54L447 53M271 54L272 55L271 54M377 54L378 55L377 54M446 54L447 55L446 54M270 55L271 56L270 55M311 55L311 60L312 60L311 55M376 55L375 58L376 55M445 55L446 56L445 55z"/>
<path style="fill:#e3e8ea; stroke:none;" d="M488 55L488 60L489 60L488 55z"/>
<path style="fill:#6b96b7; stroke:none;" d="M269.333 56.6667L269.667 57.3333L269.333 56.6667M417 56L417 60L418 60L417 56M444.333 56.6667L444.667 57.3333L444.333 56.6667M268.333 58.6667L268.667 59.3333L268.333 58.6667M374 59L375 60L374 59M443 59L444 60L443 59M267 61L268 62L267 61M310 61L310 67L311 67L310 61M373.333 61.6667L373.667 62.3333L373.333 61.6667M442.333 61.6667L442.667 62.3333L442.333 61.6667z"/>
<path style="fill:#e3e8ea; stroke:none;" d="M487 61L480 110L481 110L485.8 78L487 61z"/>
<path style="fill:#6b96b7; stroke:none;" d="M416 62L416 67L417 67L416 62M266 63L266 66L267 66L266 63M372 64L372 68L373 68L372 64M441 64L441 67L442 67L441 64M265 67L264 79L265 79L265 67M309 67L309 72L310 72L309 67M415 67L413 85L414 85L415 67z"/>
<path style="fill:#e3e8ea; stroke:none;" d="M264 68L264 73L265 73L264 68z"/>
<path style="fill:#6b96b7; stroke:none;" d="M440 68L440 74L441 74L440 68M485 68L485 73L486 73L485 68M371 69L371 75L372 75L371 69z"/>
<path style="fill:#e3e8ea; stroke:none;" d="M263 73L262 86L263 86L263 73z"/>
<path style="fill:#6b96b7; stroke:none;" d="M308 73L308 79L309 79L308 73z"/>
<path style="fill:#e3e8ea; stroke:none;" d="M415 74L415 80L416 80L415 74z"/>
<path style="fill:#6b96b7; stroke:none;" d="M484 74L484 79L485 79L484 74M439 75L439 80L440 80L439 75M370 76L370 81L371 81L370 76M263 80L263 85L264 85L263 80M307 80L307 84L308 84L307 80z"/>
<path style="fill:#e3e8ea; stroke:none;" d="M414 80L400 174L401 174C401.958 151.692 408.018 129.085 411.272 107C412.403 99.319 417.046 87.327 414 80z"/>
<path style="fill:#6b96b7; stroke:none;" d="M438 80L438 86L439 86L438 80M483 80L483 84L484 84L483 80M369 82L368 95L369 95L369 82z"/>
<path style="fill:#e3e8ea; stroke:none;" d="M368 83L368 88L369 88L368 83z"/>
<path style="fill:#6b96b7; stroke:none;" d="M306 85L306 91L307 91L306 85M482 85L482 91L483 91L482 85M262 86L262 92L263 92L262 86z"/>
<path style="fill:#e3e8ea; stroke:none;" d="M261 87L261 93L262 93L261 87z"/>
<path style="fill:#6b96b7; stroke:none;" d="M437 87L437 92L438 92L437 87M412 88L412 92L413 92L412 88z"/>
<path style="fill:#e3e8ea; stroke:none;" d="M367 89L366 102L367 102L367 89z"/>
<path style="fill:#6b96b7; stroke:none;" d="M305 92L305 98L306 98L305 92M481 92L481 98L482 98L481 92M261 93L261 99L262 99L261 93M411 93L411 98L412 98L411 93z"/>
<path style="fill:#e3e8ea; stroke:none;" d="M260 94L259 106L260 106L260 94z"/>
<path style="fill:#6b96b7; stroke:none;" d="M436 94L436 99L437 99L436 94M367 96L367 101L368 101L367 96M304 98L304 104L305 104L304 98M480 98L480 104L481 104L480 98M410 99L410 104L411 104L410 99M435 99L435 104L436 104L435 99M260 100L260 105L261 105L260 100z"/>
<path style="fill:#e3e8ea; stroke:none;" d="M434 100L433 112L434 112L434 100z"/>
<path style="fill:#6b96b7; stroke:none;" d="M366 102L366 107L367 107L366 102z"/>
<path style="fill:#e3e8ea; stroke:none;" d="M365 103L361.683 114.972L345 116L304 116L304 112L303 112L303 117L345 117C349.905 117 358.211 118.592 362.682 116.397C366.398 114.572 366.306 106.203 365 103z"/>
<path style="fill:#6b96b7; stroke:none;" d="M479 104L478 116L479 116L479 104M303 105L303 112L304 112L303 105M259 106L259 111L260 111L259 106M409 106L409 112L410 112L409 106M434 106L434 111L435 111L434 106z"/>
<path style="fill:#e3e8ea; stroke:none;" d="M258 107L258 112L259 112L258 107M81 152L82 152C83.371 141.208 84.242 124.708 91.3935 116.044C99.1018 106.705 124.66 107.619 135 112C131.345 106.933 121.688 109 116 109C109.368 109 101.105 107.661 95.0394 110.84C83.3527 116.963 81.926 140.283 81 152z"/>
<path style="fill:#6b96b7; stroke:none;" d="M365 109L365 114L366 114L365 109M99 110L99 111L102 111L99 110z"/>
<path style="fill:#1b6db2; stroke:none;" d="M69 237L118 237C125.031 237 134.286 238.567 141 236.297C149.192 233.527 156.465 224.13 162.134 217.91C185.089 192.727 192.683 166.097 192 133L191 133C189.778 161.465 176.315 186.265 149 197.2C143.363 199.457 124.752 206.605 119.773 200.477C116.378 196.298 121.169 182.972 121.87 178C125.027 155.602 130.149 133.445 133 111C121.643 111 102.291 106.458 93.108 114.394C85.3884 121.066 84.7555 137.499 83.0841 147C77.9873 175.971 69.2435 207.589 69 237z"/>
<path style="fill:#6b96b7; stroke:none;" d="M109 110L109 111L133 111L109 110M96.6667 111.333L97.3333 111.667L96.6667 111.333M133.333 111.667L133.667 112.333L133.333 111.667z"/>
<path style="fill:#e3e8ea; stroke:none;" d="M479 111L472 159L473 159L478.08 126L479 111z"/>
<path style="fill:#6b96b7; stroke:none;" d="M94.6667 112.333L95.3333 112.667L94.6667 112.333M258 112L258 118L259 118L258 112M408 112L408 117L409 117L408 112M433 112L431 129L432 129L433 112M93 113L94 114L93 113z"/>
<path style="fill:#e3e8ea; stroke:none;" d="M133 113L129 143L130 143C130.688 134.292 136.408 121.198 133 113M257 113L257 119L258 119L257 113z"/>
<path style="fill:#6b96b7; stroke:none;" d="M302 113L302 117L303 117L302 113z"/>
<path style="fill:#e3e8ea; stroke:none;" d="M432 113L432 118L433 118L432 113z"/>
<path style="fill:#6b96b7; stroke:none;" d="M92 114L93 115L92 114M132 114L132 119L133 119L132 114M91 115L92 116L91 115M90 116L91 117L90 116M364 116L365 117L364 116M303 117L303 118L364 118L344 117L303 117M477 117L477 123L478 123L477 117M89 118L90 119L89 118M407 118L407 124L408 124L407 118M257 119L257 124L258 124L257 119z"/>
<path style="fill:#e3e8ea; stroke:none;" d="M431 119L431 124L432 124L431 119z"/>
<path style="fill:#6b96b7; stroke:none;" d="M88.3333 120.667L88.6667 121.333L88.3333 120.667M131 120L131 124L132 124L131 120M189.333 120.667L189.667 121.333L189.333 120.667z"/>
<path style="fill:#e3e8ea; stroke:none;" d="M256 120L255 131L256 131L256 120z"/>
<path style="fill:#6b96b7; stroke:none;" d="M87 123L87 126L88 126L87 123M476 123L476 128L477 128L476 123M190 124L190 139L191 139L190 124M406 124L406 130L407 130L406 124M256 125L256 130L257 130L256 125z"/>
<path style="fill:#e3e8ea; stroke:none;" d="M430 125L429 137L430 137L430 125z"/>
<path style="fill:#6b96b7; stroke:none;" d="M130 126L130 131L131 131L130 126M86 127L86 130L87 130L86 127z"/>
<path style="fill:#e3e8ea; stroke:none;" d="M45 129C41.1268 129 34.9567 127.827 31.4329 129.603C18.2467 136.252 41.4162 155.853 44.5563 137.999C45.079 135.027 44.998 132.005 45 129z"/>
<path style="fill:#6b96b7; stroke:none;" d="M475 129L475 134L476 134L475 129z"/>
<path style="fill:#f29224; stroke:none;" d="M30 143C40.7371 143 42.6314 141.82 44 131C33.0077 128.383 30.0294 132.36 30 143z"/>
<path style="fill:#6b96b7; stroke:none;" d="M405 130L405 136L406 136L405 130z"/>
<path style="fill:#e3e8ea; stroke:none;" d="M57 147C60.8474 147 66.266 147.962 69.8519 146.397C83.6973 140.352 60.7591 119.15 57.4437 138.001C56.921 140.973 57.002 143.995 57 147z"/>
<path style="fill:#6b96b7; stroke:none;" d="M255 131L255 137L256 137L255 131M430 131L430 135L431 135L430 131M85 132L85 135L86 135L85 132M129 132L129 137L130 137L129 132z"/>
<path style="fill:#e3e8ea; stroke:none;" d="M254 132L249 169L250 169C250.808 158.76 257.878 141.509 254 132z"/>
<path style="fill:#f29224; stroke:none;" d="M60 133L58 145C69.0181 147.046 71.9695 144.04 72 133L60 133z"/>
<path style="fill:#6b96b7; stroke:none;" d="M192 135L192 140L193 140L192 135M84 136L84 141L85 141L84 136M404 136L404 142L405 142L404 136M474 136L474 140L475 140L474 136M429 137L429 143L430 143L429 137M128 138L127 149L128 149L128 138M254 138L254 143L255 143L254 138z"/>
<path style="fill:#e3e8ea; stroke:none;" d="M428 138L425 161L426 161L428 138z"/>
<path style="fill:#6b96b7; stroke:none;" d="M473 141L473 146L474 146L473 141M83 142L83 145L84 145L83 142M189 142L189 147L190 147L189 142M193 142L193 151L194 151L193 142M403 143L403 147L404 147L403 143z"/>
<path style="fill:#e3e8ea; stroke:none;" d="M128 144L128 149L129 149L128 144z"/>
<path style="fill:#6b96b7; stroke:none;" d="M253 144L253 149L254 149L253 144M428 144L428 148L429 148L428 144z"/>
<path style="fill:#e3e8ea; stroke:none;" d="M39 162C42.8153 162.032 48.2973 163.812 51.8557 162.382C66.168 156.629 43.6511 134.265 39.8048 154.001C39.2828 156.679 39.0562 159.278 39 162z"/>
<path style="fill:#6b96b7; stroke:none;" d="M472 147L472 154L473 154L472 147z"/>
<path style="fill:#f29224; stroke:none;" d="M43.5995 149.028C36.3979 154.626 44.929 165.78 52.4005 159.972C59.6021 154.374 51.071 143.22 43.5995 149.028z"/>
<path style="fill:#6b96b7; stroke:none;" d="M82 148L82 151L83 151L82 148M188 148L188 152L189 152L188 148M402 148L402 153L403 153L402 148z"/>
<path style="fill:#e3e8ea; stroke:none;" d="M127 149L120 196L121 196L126 165L127 149z"/>
<path style="fill:#6b96b7; stroke:none;" d="M126 150L126 155L127 155L126 150M427 150L427 155L428 155L427 150M252 151L252 155L253 155L252 151M81 152L81 157L82 157L81 152M187 153L187 156L188 156L187 153z"/>
<path style="fill:#e3e8ea; stroke:none;" d="M80 154L79 164L80 164L80 154z"/>
<path style="fill:#6b96b7; stroke:none;" d="M192 154L192 160L193 160L192 154M471 154L470 165L471 165L471 154M401 155L401 161L402 161L401 155M125 156L125 161L126 161L125 156M426 156L426 160L427 160L426 156M186.333 157.667L186.667 158.333L186.333 157.667M251 157L251 162L252 162L251 157M80 158L80 163L81 163L80 158z"/>
<path style="fill:#e3e8ea; stroke:none;" d="M22 159C21.3371 162.558 19.4098 168.276 20.6929 171.772C22.4003 176.424 32.454 176.066 35.142 172.682C37.6575 169.515 37.2854 163.847 38 160L22 159z"/>
<path style="fill:#f29224; stroke:none;" d="M36 160C32.828 160 28.2362 159.188 25.314 160.603C14.1253 166.023 32.3179 182.4 35.3804 166.997C35.8437 164.667 35.9512 162.366 36 160z"/>
<path style="fill:#6b96b7; stroke:none;" d="M185.333 160.667L185.667 161.333L185.333 160.667z"/>
<path style="fill:#e3e8ea; stroke:none;" d="M471 160L464 208L465 208L469.803 177L471 160z"/>
<path style="fill:#6b96b7; stroke:none;" d="M293 172L294 172C294.393 167.236 295.074 163.491 300 162C293.626 159.784 293.198 167.409 293 172M348 161L348 162L356 162L356 166C357.733 160.711 351.758 161.013 348 161M425 161L425 167L426 167L425 161M124 162L124 167L125 167L124 162M184 162L183 166L184 166L184 162M191 162L191 166L192 166L191 162z"/>
<path style="fill:#e3e8ea; stroke:none;" d="M296 162L296 163L355 163L354 173L355 173L356 162L296 162z"/>
<path style="fill:#6b96b7; stroke:none;" d="M400 162L400 168L401 168L400 162z"/>
<path style="fill:#e3e8ea; stroke:none;" d="M183.333 163.667L183.667 164.333L183.333 163.667M295 163L295 167L296 167L295 163M424 163L423 174L424 174L424 163z"/>
<path style="fill:#6b96b7; stroke:none;" d="M79 164L79 169L80 169L79 164M250 164L250 168L251 168L250 164z"/>
<path style="fill:#e3e8ea; stroke:none;" d="M78 165L77 176L78 176L78 165M182 165C175.146 181.355 158.1 194.042 141 198L141 199C153.895 197.096 166.878 188.549 175.331 178.83C178.401 175.301 182.808 169.856 182 165z"/>
<path style="fill:#6b96b7; stroke:none;" d="M190 166L190 170L191 170L190 166M469 166L469 171L470 171L469 166M182.333 167.667L182.667 168.333L182.333 167.667z"/>
<path style="fill:#e3e8ea; stroke:none;" d="M294 167L290 198L291 198L294 167z"/>
<path style="fill:#6b96b7; stroke:none;" d="M123 168L123 172L124 172L123 168M355 168L355 173L356 173L355 168M399 168L398 180L399 180L399 168M424 168L424 174L425 174L424 168M181.333 169.667L181.667 170.333L181.333 169.667M249 169L248 181L249 181L249 169M189 170L188 176L189 176L189 170z"/>
<path style="fill:#e3e8ea; stroke:none;" d="M248 170L248 175L249 175L248 170z"/>
<path style="fill:#6b96b7; stroke:none;" d="M78 171L78 175L79 175L78 171M180 171L181 172L180 171M468 172L468 177L469 177L468 172M122 173L122 178L123 178L122 173M179 173L180 174L179 173M354 173L354 179L355 179L354 173M178 174L179 175L178 174M292 174L292 179L293 179L292 174z"/>
<path style="fill:#e3e8ea; stroke:none;" d="M353 174L353 180L354 180L353 174z"/>
<path style="fill:#6b96b7; stroke:none;" d="M423 174L422 185L423 185L423 174z"/>
<path style="fill:#e3e8ea; stroke:none;" d="M399 175L399 180L400 180L399 175z"/>
<path style="fill:#6b96b7; stroke:none;" d="M77 176L76 187L77 187L77 176M177 176L178 177L177 176M187 176L187 179L188 179L187 176z"/>
<path style="fill:#e3e8ea; stroke:none;" d="M247 176L247 182L248 182L247 176M422 176L422 180L423 180L422 176M76 177L76 181L77 181L76 177z"/>
<path style="fill:#6b96b7; stroke:none;" d="M176 177L177 178L176 177M175 178L176 179L175 178M467 178L467 184L468 184L467 178M186 179L185 184L186 184L186 179M121 180L121 185L122 185L121 180M174 180L175 181L174 180M291 180L291 185L292 185L291 180M353 180L351 199L352 199L353 180z"/>
<path style="fill:#e3e8ea; stroke:none;" d="M398 180C397.176 199.183 393.932 228.07 373 235.452C364.417 238.479 353.975 237 345 237L345 233L344 233L344 238C352.915 238 363.328 239.472 372 237.239C389.881 232.635 394.378 214.952 396.728 199C397.576 193.246 400.288 185.503 398 180z"/>
<path style="fill:#6b96b7; stroke:none;" d="M172 181L173 182L172 181z"/>
<path style="fill:#e3e8ea; stroke:none;" d="M352 181L352 186L353 186L352 181z"/>
<path style="fill:#6b96b7; stroke:none;" d="M397 181L397 186L398 186L397 181z"/>
<path style="fill:#e3e8ea; stroke:none;" d="M421 181L420 192L421 192L421 181M75 182L74 194L75 194L75 182z"/>
<path style="fill:#6b96b7; stroke:none;" d="M171 182L172 183L171 182M247 182L247 187L248 187L247 182M170 183L171 184L170 183z"/>
<path style="fill:#e3e8ea; stroke:none;" d="M246 183L244 200L245 200L246 183z"/>
<path style="fill:#6b96b7; stroke:none;" d="M169 184L170 185L169 184M184.333 184.667L184.667 185.333L184.333 184.667M168 185L169 186L168 185M466 185L466 189L467 189L466 185M120 186L120 192L121 192L120 186M167 186L168 187L167 186M183 186L181 192L182 192L183 186M165.667 187.333L166.333 187.667L165.667 187.333M290 187L290 192L291 192L290 187z"/>
<path style="fill:#e3e8ea; stroke:none;" d="M351 187L351 192L352 192L351 187z"/>
<path style="fill:#6b96b7; stroke:none;" d="M396 187L396 192L397 192L396 187M421 187L421 192L422 192L421 187M75 188L75 192L76 192L75 188M164 188L165 189L164 188M246 188L246 192L247 192L246 188M163 189L164 190L163 189M161 190L162 191L161 190M160 191L161 192L160 191M119 192L119 197L120 197L119 192M158 192L159 193L158 192M180.333 192.667L180.667 193.333L180.333 192.667M420 192L420 198L421 198L420 192M465 192L465 196L466 196L465 192M156.667 193.333L157.333 193.667L156.667 193.333z"/>
<path style="fill:#e3e8ea; stroke:none;" d="M419 193L419 199L420 199L419 193z"/>
<path style="fill:#6b96b7; stroke:none;" d="M74 194L72 211L73 211L74 194M154.667 194.333L155.333 194.667L154.667 194.333M179.333 194.667L179.667 195.333L179.333 194.667M289 194L288 205L289 205L289 194z"/>
<path style="fill:#e3e8ea; stroke:none;" d="M350 194L345 232L346 232C346.465 221.166 354.126 204.116 350 194z"/>
<path style="fill:#6b96b7; stroke:none;" d="M395 194L395 200L396 200L395 194z"/>
<path style="fill:#e3e8ea; stroke:none;" d="M73 195L73 200L74 200L73 195z"/>
<path style="fill:#6b96b7; stroke:none;" d="M152.667 195.333L153.333 195.667L152.667 195.333M245 195L245 199L246 199L245 195M150 196L151 197L150 196M178 196L177 199L178 196z"/>
<path style="fill:#e3e8ea; stroke:none;" d="M119 197C120.291 204.738 129.26 201.118 135 201L135 200L120 201L119 197z"/>
<path style="fill:#6b96b7; stroke:none;" d="M147.667 197.333L148.333 197.667L147.667 197.333M464 197L464 203L465 203L464 197M118 198L118 201L119 201L118 198M144.667 198.333L145.333 198.667L144.667 198.333z"/>
<path style="fill:#e3e8ea; stroke:none;" d="M136 199L136 200L140 200L136 199z"/>
<path style="fill:#6b96b7; stroke:none;" d="M140 199L140 200L144 200L140 199M176 199L177 200L176 199z"/>
<path style="fill:#e3e8ea; stroke:none;" d="M289 199L289 205L290 205L289 199z"/>
<path style="fill:#6b96b7; stroke:none;" d="M419 199L419 204L420 204L419 199M135 200L135 201L140 201L135 200M244 200L244 206L245 206L244 200M350 200L350 205L351 205L350 200M394 200L394 205L395 205L394 200z"/>
<path style="fill:#e3e8ea; stroke:none;" d="M418 200L417 211L418 211L418 200M72 201L72 205L73 205L72 201z"/>
<path style="fill:#6b96b7; stroke:none;" d="M119 201L120 202L119 201M128 201L128 202L135 202L128 201M175 201L173 205L175 201z"/>
<path style="fill:#e3e8ea; stroke:none;" d="M243 201L241 219L242 219L243 201z"/>
<path style="fill:#6b96b7; stroke:none;" d="M121.667 202.333L122.333 202.667L121.667 202.333M463 204L460 218L461 218L463 204M172 205L171 208L172 205z"/>
<path style="fill:#e3e8ea; stroke:none;" d="M288 205C287.399 218.154 278.189 232.666 265 236L265 237C276.872 235.148 293.314 218.033 288 205z"/>
<path style="fill:#6b96b7; stroke:none;" d="M418 205L418 210L419 210L418 205M287 206L287 211L288 211L287 206z"/>
<path style="fill:#e3e8ea; stroke:none;" d="M71 207L71 212L72 212L71 207z"/>
<path style="fill:#6b96b7; stroke:none;" d="M349 207L349 213L350 213L349 207M393 207L393 211L394 211L393 207M169 208L166 214L171 208L169 208M243 208L243 213L244 213L243 208z"/>
<path style="fill:#e3e8ea; stroke:none;" d="M463 209L463 213L464 213L463 209z"/>
<path style="fill:#6b96b7; stroke:none;" d="M286 211L286 214L287 214L286 211M417 211L416 223L417 223L417 211M71 212L71 218L72 218L71 212M392.333 212.667L392.667 213.333L392.333 212.667z"/>
<path style="fill:#e3e8ea; stroke:none;" d="M416 212L416 216L417 216L416 212M70 213L69 224L70 224L70 213M462 213C458.755 224.264 450.701 234.195 439 237L439 238C448.53 236.591 466.013 224.598 462 213z"/>
<path style="fill:#6b96b7; stroke:none;" d="M165 214L164 216L166 216L165 214M242 214L242 218L243 218L242 214M348 214L348 219L349 219L348 214M285.333 215.667L285.667 216.333L285.333 215.667M391.333 215.667L391.667 216.333L391.333 215.667M163 216L160 221L163 216M284.333 217.667L284.667 218.333L284.333 217.667M390.333 217.667L390.667 218.333L390.333 217.667z"/>
<path style="fill:#e3e8ea; stroke:none;" d="M415 218C414.804 222.56 410.549 233.625 413.117 237.397C415.982 241.603 433.224 239 438 239L438 238L413 237L415 218z"/>
<path style="fill:#6b96b7; stroke:none;" d="M70 219L70 224L71 224L70 219M241 219L240 230L241 230L241 219M283.333 219.667L283.667 220.333L283.333 219.667M459 219L460 220L459 219M347 220L347 224L348 224L347 220M389 220L390 221L389 220M157 224L160 221L157 224z"/>
<path style="fill:#e3e8ea; stroke:none;" d="M240 221L240 224L241 224L240 221z"/>
<path style="fill:#6b96b7; stroke:none;" d="M282.333 221.667L282.667 222.333L282.333 221.667M458 221L459 222L458 221M388 222L389 223L388 222M281 223L282 224L281 223M457 223L458 224L457 223M69 224L68 238L141 238L141 237L69 237L69 224M156 224L157 225L156 224M387 224L388 225L387 224M415 224L415 229L416 229L415 224M152 229L156 225L152 229M280 225L281 226L280 225M386 225L387 226L386 225M456 225L457 226L456 225z"/>
<path style="fill:#e3e8ea; stroke:none;" d="M68 226L68 230L69 230L68 226M239 226L239 232L240 232L239 226z"/>
<path style="fill:#6b96b7; stroke:none;" d="M279 226L280 227L279 226M346 226L346 231L347 231L346 226M385 226L386 227L385 226M455 226L456 227L455 226M278 227L279 228L278 227M454 227L455 228L454 227M277 228L278 229L277 228M384 228L385 229L384 228M453 228L454 229L453 228M148 232L152 229L148 232M276 229L277 230L276 229M383 229L384 230L383 229M452 229L453 230L452 229M275 230L276 231L275 230M380 232L383 230L380 232M414 230L414 234L415 234L414 230M451 230L452 231L451 230M274 231L275 232L274 231M450 231L451 232L450 231M147 232L148 233L147 232M239 232L239 237L265 237L265 236L240 236L239 232M273 232L274 233L273 232M345 232L345 237L370 237L370 236L346 236L345 232M379 232L380 233L379 232M449 232L450 233L449 232M146 233L147 234L146 233M271 233L272 234L271 233M377 233L378 234L377 233M447 233L448 234L447 233M141 236L141 237L146 234L141 236z"/>
<path style="fill:#e3e8ea; stroke:none;" d="M238 234L238 237L239 237L238 234z"/>
<path style="fill:#6b96b7; stroke:none;" d="M268 234L268 235L271 235L268 234M374.667 234.333L375.333 234.667L374.667 234.333M445.667 234.333L446.333 234.667L445.667 234.333M266.667 235.333L267.333 235.667L266.667 235.333M372.667 235.333L373.333 235.667L372.667 235.333M443.667 235.333L444.333 235.667L443.667 235.333M413 236L414 237L413 236M439 236L439 237L442 237L439 236z"/>
<path style="fill:#e3e8ea; stroke:none;" d="M239 237L239 238L264 238L239 237z"/>
<path style="fill:#6b96b7; stroke:none;" d="M414 237L414 238L439 238L414 237z"/>
<path style="fill:#e3e8ea; stroke:none;" d="M387 254L389 260L384 259L384 260L387 260L385 265L388 264L388 277L393 278C394.805 271.894 397.46 249.25 387 254M65 254C66.3274 259.575 63.5554 271.012 67.0278 275.397C75.5856 286.202 84.9802 269.177 85 262L84 262C83.8904 274.256 77.9103 276 67 276L67 254L78 255L65 254M87 277L93 275L88 276L88 260C92.1478 259.28 94.4697 252.76 89.1744 253.466C84.1047 254.142 87 273.061 87 277M115 277L120 278L124 259L121 261C120.823 258.253 117.361 248.742 115.398 256.149C113.737 262.418 115 270.536 115 277M124 256L128 257L129 257L129 253C126.084 253.137 124.37 253.017 124 256M153 253L153 277L158 278L159 277L158 274L154 276L154 254L157 256C158.095 253.095 155.45 253.12 153 253M170 277L175 278L176 268L182 268L182 277L187 277L187 276L183 276L183 267L175 267L175 276L171 276L171 254L175 254C175.038 264.647 182.962 264.647 183 254L188 256C186.088 253.079 184.304 253.31 181 254L182 262L176 262C175.99 259.122 172.648 248.299 170.318 256.149C168.513 262.228 170 270.668 170 277M272 256L277 254L277 259L278 259L279 254C275.696 253.31 273.912 253.079 272 256M300 257L301 257C302.976 255.149 303.57 254.569 305 257L306 257L307 254C303.326 253.021 301.26 253.202 300 257M380 269L381 269L381 254L385 255C378.012 247.12 379.413 266.13 380 269z"/>
<path style="fill:#6b96b7; stroke:none;" d="M391 253L393 255L391 253z"/>
<path style="fill:#e3e8ea; stroke:none;" d="M456 253L456 254L460 254L459 277L455 275C463.222 283.154 461 257.458 461 253L456 253z"/>
<path style="fill:#6b96b7; stroke:none;" d="M67 256L75 255L67 256M88 254L87 257L88 257L88 254z"/>
<path style="fill:#1b6db2; stroke:none;" d="M89 254L88 258L91 254L89 254z"/>
<path style="fill:#6b96b7; stroke:none;" d="M91 254L91 258L92 258L91 254M116 254L117 255L116 254z"/>
<path style="fill:#1b6db2; stroke:none;" d="M116 255L117 258L119 258L120 257L120 255L119 254L116 255z"/>
<path style="fill:#6b96b7; stroke:none;" d="M119 254L120 255L119 254M125 254L125 255L128 256L125 254M154 254L154 255L157 255L154 254M171 256L174 255L174 261L175 261L175 254L171 256M183 254L183 255L186 255C186 260.676 188.246 271.599 183 275L183 276L187 276C187 270.024 189.785 256.252 183 254M273 274L274 274C274 268.469 271.876 258.322 277 255C270.723 253.59 273 269.978 273 274M302 254L302 255L305 255L302 254M381 254L381 255L384 255L384 259L385 259L381 254M389 254L390 255L389 254z"/>
<path style="fill:#1b6db2; stroke:none;" d="M390 254L389 255L389 257L390 258L392 258L393 257L393 255L392 254L390 254z"/>
<path style="fill:#6b96b7; stroke:none;" d="M456 257L457 257L459 255L458 277L459 277L460 254L456 257z"/>
<path style="fill:#1b6db2; stroke:none;" d="M68.6034 256.028C61.5243 261.617 67.4288 282.851 79.7762 273.99C89.6934 266.873 78.0153 248.597 68.6034 256.028z"/>
<path style="fill:#6b96b7; stroke:none;" d="M76 255L76 256L79 256L76 255z"/>
<path style="fill:#e3e8ea; stroke:none;" d="M79 255L80 256L79 255z"/>
<path style="fill:#1b6db2; stroke:none;" d="M125 255L125 275L128 275L127 255L125 255M154 255L155 276L156 276L157 255L154 255M172 255L172 276L173 276C175.187 268.821 175.515 265.454 184 267L183 275L186 275L186 255L183 255L182 264L175 264L174 255L172 255M274 255C274 260.819 271.636 272.523 277 276L277 255L274 255M302 255L300 263L302 275L305 275L307 263L305 255L302 255M381 255L382 276L383 276L384 255L381 255M457 255C455.748 260.272 454.362 272.466 459 276L459 255L457 255z"/>
<path style="fill:#6b96b7; stroke:none;" d="M80 256L83 260L80 256M116.333 256.667L116.667 257.333L116.333 256.667M124 256L124 260L125 260L124 256M157 256L157 274L158 274L157 256M301.333 256.667L301.667 257.333L301.333 256.667M71 257L72 258L71 257z"/>
<path style="fill:#e3e8ea; stroke:none;" d="M81 257L83 259L83 257L81 257z"/>
<path style="fill:#6b96b7; stroke:none;" d="M119 257L120 258L119 257M128 257L129 258L128 257M305 257L306 258L305 257M389 257L390 258L389 257M392 257L393 258L392 257z"/>
<path style="fill:#e3e8ea; stroke:none;" d="M71 260C75.2027 259.846 77.1523 261.264 79 265C80.2284 260.46 74.3701 256.312 71 260z"/>
<path style="fill:#6b96b7; stroke:none;" d="M75.6667 258.333L76.3333 258.667L75.6667 258.333z"/>
<path style="fill:#e3e8ea; stroke:none;" d="M128 258L131 260L131 264L132 264L128 258M301 258L301 272L302 272L301 258M305 258L307 264C309.75 261.56 307.49 259.698 305 258M455 258L455 274L456 274L455 258z"/>
<path style="fill:#6b96b7; stroke:none;" d="M70 259L71 274L72 274L70 259z"/>
<path style="fill:#010101; stroke:none;" d="M72.6381 260.137C69.3532 262.288 70.5552 274.505 76.6096 270.802C81.7627 267.649 77.6098 256.881 72.6381 260.137z"/>
<path style="fill:#6b96b7; stroke:none;" d="M77.6667 259.333L78.3333 259.667L77.6667 259.333z"/>
<path style="fill:#e3e8ea; stroke:none;" d="M83.3333 259.667L83.6667 260.333L83.3333 259.667M95 265L96 265C99.4763 260.615 102.647 260.055 108 261C102.87 257.5 97.3171 259.421 95 265M109 259L109 260L112 260L109 259M138 277L138 276C125.02 265.711 139.933 259.668 150 261C140.878 250.802 122.231 269.22 138 277M192 263C198.223 260.466 202.37 259.16 207 265C207.18 256.773 195.69 258.818 192 263M216 277L212 260L216 260C207.457 257.273 210.71 274.224 216 277M221 262L226 260C226 268.128 226.708 275.454 217 277C232.254 282.878 226.773 253.175 221 262M235 271L235 272C230.662 271.27 227.439 274.016 232 277L230 273L231 272L237 273C235.501 270.313 231.508 268.093 231.06 264.976C230.163 258.726 237.955 260.504 240 264L234 264L240 270L241 270L236 266C249.709 259.314 220.822 255.987 231.274 268.576C232.268 269.773 233.681 270.293 235 271M249 259L249 260C255.617 260.16 259.082 262.561 261 269L248 270L251 273L251 272L249 272L249 271L256 271L256 272L254 272L254 273L261 271C263.148 262.378 256.569 259.069 249 259z"/>
<path style="fill:#6b96b7; stroke:none;" d="M277 259L277 264L278 264L277 259z"/>
<path style="fill:#e3e8ea; stroke:none;" d="M282 259L281 264L282 264L284 259L282 259M285 259L285 260L296 264L297 264C294.837 258.347 290.245 259.278 285 259z"/>
<path style="fill:#6b96b7; stroke:none;" d="M301 259L302 260L301 259M305 259L306 260L305 259z"/>
<path style="fill:#e3e8ea; stroke:none;" d="M315 277L315 276C303.337 266.755 319.03 253.299 326 266C327.619 254 301.035 259.909 310.718 273.851C311.89 275.539 313.239 276.131 315 277M329 263L330 263L330 260L338 260L336 264L339 261L341 262C352.922 254.967 355 267.167 355 276L351 274L350 274C350.729 277.403 352.806 276.987 356 277C356 272.121 357.711 263.18 352.772 260.18C348.622 257.659 328.9 257.385 329 263M376 277L376 276C372.305 276.031 367.443 277.414 364.019 275.782C358.323 273.065 357.276 264.545 363.109 261.333C366.597 259.411 372.199 260.544 376 261C364.482 252.84 349.08 269.717 363.019 276.817C366.841 278.764 371.893 277.085 376 277z"/>
<path style="fill:#6b96b7; stroke:none;" d="M380 259L381 260L380 259z"/>
<path style="fill:#e3e8ea; stroke:none;" d="M396 266L397 266C402.019 259.265 406.357 260.061 413 264C407.787 257.424 398.958 257.51 396 266M416 277L421 278C422.4 273.265 420.661 265.77 427 265L427 264C419.938 263.729 421.001 270.674 421 276L417 276L417 260C422.476 260.579 427.199 259.452 431 264C431.812 258.376 421.094 257.395 417.603 260.052C414.158 262.676 416 273.088 416 277M434 271L435 271C435.733 262.924 440.115 259.608 448 261C439.534 255.217 434.347 263.066 434 271M449 259L449 260L452 260L452 276L446 276L446 277L453 277C453 271.487 455.317 261.097 449 259z"/>
<path style="fill:#6b96b7; stroke:none;" d="M88.6667 260.333L89.3333 260.667L88.6667 260.333z"/>
<path style="fill:#1b6db2; stroke:none;" d="M90 260C87.1362 264.089 86.5923 271.886 91 275L90 260z"/>
<path style="fill:#6b96b7; stroke:none;" d="M91 260L91 275L89 273L88 273L92 276L91 260M100 260L100 261L107 262L100 260M108 260L108 261L111 263C111.951 260.493 110.348 260.294 108 260M116 260L116 264L117 264L120 261L116 260M123 260L124 261L123 260M129 260L128 266L129 266L129 260M136 261L136 262L149 261L149 276C153.744 264.695 147.483 257.63 136 261M197 260L197 261L207 264L197 260M212 262L215 264L216 264L216 260L212 262M222 263L223 263L225 263C226.286 259.625 223.175 260.827 222 263M230 266L231 266L234 261C230.891 260.922 230.438 263.202 230 266z"/>
<path style="fill:#1b6db2; stroke:none;" d="M238 273L231 273C233.256 276.476 240.147 276.676 239.534 271.085C239.193 267.972 235.16 265.816 233 264L239 264C237.677 259.48 230.726 259.653 231.301 265C231.661 268.347 235.928 270.642 238 273z"/>
<path style="fill:#6b96b7; stroke:none;" d="M236.667 260.333L237.333 260.667L236.667 260.333z"/>
<path style="fill:#e3e8ea; stroke:none;" d="M247 260L244 264L247 260z"/>
<path style="fill:#6b96b7; stroke:none;" d="M244 267L245 267L251 261C246.926 260.179 245.016 263.423 244 267z"/>
<path style="fill:#1b6db2; stroke:none;" d="M258 273L247 272L260 269C259.025 260.324 246.727 256.874 244.667 267.005C243.108 274.668 253.687 279.105 258 273z"/>
<path style="fill:#6b96b7; stroke:none;" d="M253 260L253 261L256 261L253 260M282 276L283 276L283 261L296 263C284.595 251.363 282 267.866 282 276M300 260L301 261L300 260M306 260L307 261L306 260M315.667 260.333L316.333 260.667L315.667 260.333z"/>
<path style="fill:#1b6db2; stroke:none;" d="M324 273C319.049 274.142 316.375 274.127 313 270L321 267L313 266L313 265C317.835 262.815 321.817 262.732 322 269L326 269C324.498 260.784 312.039 256.473 310.577 267.04C309.533 274.588 319.577 279.26 324 273z"/>
<path style="fill:#6b96b7; stroke:none;" d="M319 260L319 261L322 261L319 260M329 262L332 261L329 262M335 260L335 261L337 262L333 268L334 268L338 260L335 260M341 260L341 261L344 261L341 260M347.667 260.333L348.333 260.667L347.667 260.333z"/>
<path style="fill:#1b6db2; stroke:none;" d="M341 261L341 275L344 275C344.002 272.509 344.915 259.492 350.143 265.377C352.448 267.972 352.046 272.802 353 276C357.995 264.096 351.201 260.922 341 261z"/>
<path style="fill:#6b96b7; stroke:none;" d="M350.667 260.333L351.333 260.667L350.667 260.333M360 262L360 263L365 261L360 262z"/>
<path style="fill:#1b6db2; stroke:none;" d="M374 276L375 261C371.57 261.135 367.279 259.941 364.055 261.182C358.247 263.418 357.664 271.934 363.109 274.971C366.213 276.703 370.578 275.618 374 276z"/>
<path style="fill:#6b96b7; stroke:none;" d="M367.667 260.333L368.333 260.667L367.667 260.333M372 260L372 261L375 261L372 260M379 260L380 261L379 260M385 260L386 263L387 263L387 260L385 260M389 263L390 263L393 261C390.588 259.645 389.568 260.351 389 263M402.667 260.333L403.333 260.667L402.667 260.333z"/>
<path style="fill:#1b6db2; stroke:none;" d="M404.005 260.863C394.564 261.464 395.677 276.065 405 275.833C415.601 275.568 414.274 260.208 404.005 260.863z"/>
<path style="fill:#6b96b7; stroke:none;" d="M405 260L405 261L408 261L405 260M417 262L422 262L417 262M423 260L423 261L426 261L423 260z"/>
<path style="fill:#1b6db2; stroke:none;" d="M420 276C420.039 261.695 427.314 262.659 429 276C438.407 263.583 416.618 252.737 417.602 269.995C417.764 272.843 418.053 273.974 420 276z"/>
<path style="fill:#6b96b7; stroke:none;" d="M427.667 260.333L428.333 260.667L427.667 260.333M440.667 260.333L441.333 260.667L440.667 260.333z"/>
<path style="fill:#1b6db2; stroke:none;" d="M451 276C451.432 273.671 451.871 271.373 451.96 268.998C452.741 248.003 424.146 270.851 441.044 275.556C444.114 276.41 447.823 275.849 451 276z"/>
<path style="fill:#6b96b7; stroke:none;" d="M444.667 260.333L445.333 260.667L444.667 260.333M448 260L448 261L452 262L448 260M79 261L80 262L79 261M83 261L83 264L84 264L83 261M98 261L96 264L98 261z"/>
<path style="fill:#1b6db2; stroke:none;" d="M109 276C105.422 280.074 103.078 280.099 98 279C105.475 290.53 116.717 270.107 110.825 262.614C103.932 253.848 87.7714 270.207 100.109 275.244C102.755 276.324 106.188 275.684 109 276z"/>
<path style="fill:#e3e8ea; stroke:none;" d="M112 261L112 276L113 276L112 261z"/>
<path style="fill:#1b6db2; stroke:none;" d="M117 261L117 276L119 276L120 261L117 261z"/>
<path style="fill:#6b96b7; stroke:none;" d="M122 261L124 274L125 274L122 261z"/>
<path style="fill:#1b6db2; stroke:none;" d="M149 276L149 261C145.401 261.171 140.554 260.223 137.225 261.743C132.076 264.094 132.529 272.338 137.133 274.971C140.363 276.819 145.391 275.829 149 276z"/>
<path style="fill:#6b96b7; stroke:none;" d="M195 261L196 262L195 261z"/>
<path style="fill:#1b6db2; stroke:none;" d="M196.059 261.743C187.313 265.352 193.928 279.04 202.892 275.257C212.27 271.299 205.284 257.936 196.059 261.743M213 261C208.03 277.972 229.332 279.849 225 261L223 261C222.268 267.518 223.482 273.436 215 273L215 261L213 261z"/>
<path style="fill:#6b96b7; stroke:none;" d="M239 261L239 264L240 264L239 261M256.667 261.333L257.333 261.667L256.667 261.333z"/>
<path style="fill:#1b6db2; stroke:none;" d="M283 261L283 276C287.075 273.121 286 267.545 286 263C294.822 263.984 291.294 269.813 295 276C298.516 264.105 293.712 261.508 283 261z"/>
<path style="fill:#6b96b7; stroke:none;" d="M299.333 261.667L299.667 262.333L299.333 261.667M307.333 261.667L307.667 262.333L307.333 261.667M313 261L314 262L313 261M322.667 261.333L323.333 261.667L322.667 261.333z"/>
<path style="fill:#1b6db2; stroke:none;" d="M330 261L331 276L332 276L337 262L330 261z"/>
<path style="fill:#6b96b7; stroke:none;" d="M333 261L334 262L333 261M353 261L354 262L353 261M370.667 261.333L371.333 261.667L370.667 261.333M375 261L374 276C377.355 273.069 376.628 264.88 375 261z"/>
<path style="fill:#1b6db2; stroke:none;" d="M390 261L390 275L392 275L393 261L390 261z"/>
<path style="fill:#6b96b7; stroke:none;" d="M400 261L401 262L400 261M408.667 261.333L409.333 261.667L408.667 261.333M429 261L430 262L429 261M438 261L439 262L438 261M446.667 261.333L447.333 261.667L446.667 261.333M119 262L120 263L119 262M134.333 262.667L134.667 263.333L134.333 262.667M175.333 262.667L175.667 263.333L175.333 262.667M182 262L183 263L182 262M193 262L194 263L193 262M252 262L253 263L252 262M258 262L259 263L258 262M288 263L288 264L292 266C292.087 263.255 290.538 263.086 288 263M312 262L313 263L312 262M318 262L319 263L318 262M324.333 262.667L324.667 263.333L324.333 262.667M340.333 262.667L340.667 263.333L340.333 262.667M392 262L393 263L392 262M410 262L411 263L410 262M430 262L431 263L430 262M437 262L438 263L437 262z"/>
<path style="fill:#e3e8ea; stroke:none;" d="M71 263L71 266L72 266L71 263z"/>
<path style="fill:#6b96b7; stroke:none;" d="M101 263L101 264L106 264L101 263M139 263L139 264L145 267C145.084 263.523 142.001 263.227 139 263M181 263L182 264L181 263M192 263L193 264L192 263M197 263L197 264L202 264L197 263z"/>
<path style="fill:#e3e8ea; stroke:none;" d="M221 263L221 272L217 267L216 267C216.738 276.476 224.003 270.159 221 263z"/>
<path style="fill:#6b96b7; stroke:none;" d="M234 263L234 264L237 264L234 263M250 263L251 264L250 263z"/>
<path style="fill:#e3e8ea; stroke:none;" d="M251 263L251 264L253 266L253 267L256 266L256 264L251 263z"/>
<path style="fill:#6b96b7; stroke:none;" d="M254 263L255 264L254 263M286 263L286 266L287 266L286 263M300 263L302 265L302 263L300 263M305 263L305 272L306 272L307 263L305 263M313 265L313 266L320 267L320 266L314 266L317 264L313 265z"/>
<path style="fill:#e3e8ea; stroke:none;" d="M317 263L317 264L320 267L321 267L322 264L317 263z"/>
<path style="fill:#6b96b7; stroke:none;" d="M320 263L321 264L320 263M329 263L329 274L330 274L329 263M341 275L341 276L350 264C342.747 261.694 345.315 272.202 341 275M354 263L354 276L355 276L354 263M365 263L365 264L369 264L365 263M379 263L380 264L379 263M385 263L386 264L385 263M403 263L403 264L407 264L403 263M411 263L412 264L411 263M423 263L424 264L423 263M425 263L426 264L425 263M436.333 263.667L436.667 264.333L436.333 263.667M442 263L442 264L446 264L442 263M80 264L80 267L81 267L80 264z"/>
<path style="fill:#e3e8ea; stroke:none;" d="M100 264L100 272L101 272L102 264L100 264z"/>
<path style="fill:#010101; stroke:none;" d="M102.302 265.256C98.8337 266.839 100.959 272.889 104.725 271.338C108.348 269.846 105.933 263.6 102.302 265.256z"/>
<path style="fill:#e3e8ea; stroke:none;" d="M104 264L104 265C107.176 268.241 106.244 270.707 102 272L102 273C107.446 272.131 110.328 266.1 104 264z"/>
<path style="fill:#6b96b7; stroke:none;" d="M107 264L108 265L107 264z"/>
<path style="fill:#e3e8ea; stroke:none;" d="M123 264L124 265L123 264M129 264L130 265L129 264z"/>
<path style="fill:#6b96b7; stroke:none;" d="M133 264L133 267L134 267L133 264M137 264L138 265L137 264z"/>
<path style="fill:#e3e8ea; stroke:none;" d="M137 267L145 266C141.943 263.697 139.15 263.686 137 267M191.333 264.667L191.667 265.333L191.333 264.667M196.742 265.029C192.539 268.447 198.341 275.412 202.393 271.392C206.16 267.654 200.847 261.691 196.742 265.029z"/>
<path style="fill:#6b96b7; stroke:none;" d="M203.333 264.667L203.667 265.333L203.333 264.667M222 264L222 271L223 271L222 264M233 264L234 265L233 264M248 264L249 265L248 264z"/>
<path style="fill:#e3e8ea; stroke:none;" d="M249 264L251 267L251 266L249 264z"/>
<path style="fill:#010101; stroke:none;" d="M249 265L249 266L255 266L249 265z"/>
<path style="fill:#6b96b7; stroke:none;" d="M259 264L260 265L259 264z"/>
<path style="fill:#e3e8ea; stroke:none;" d="M277 264L277 276L274 274L273 274C273.975 277.33 275.752 277.63 279 277L277 264M287.333 264.667L287.667 265.333L287.333 264.667M289 264L289 265L292 265L289 264z"/>
<path style="fill:#6b96b7; stroke:none;" d="M296 264L295 276C298.045 273.339 297.478 267.521 296 264M310 264L310 267L311 267L310 264z"/>
<path style="fill:#e3e8ea; stroke:none;" d="M315 264L315 267L316 267L315 264z"/>
<path style="fill:#010101; stroke:none;" d="M315 265L315 266L321 266L315 265z"/>
<path style="fill:#6b96b7; stroke:none;" d="M325.333 264.667L325.667 265.333L325.333 264.667z"/>
<path style="fill:#e3e8ea; stroke:none;" d="M334 264L335 265L334 264M340.333 264.667L340.667 265.333L340.333 264.667M346.667 264.333L347.333 264.667L346.667 264.333M349 264L350 269L351 269L349 264z"/>
<path style="fill:#6b96b7; stroke:none;" d="M359.333 264.667L359.667 265.333L359.333 264.667M363 264L364 265L363 264z"/>
<path style="fill:#e3e8ea; stroke:none;" d="M363 267C371.309 263.719 371.309 273.281 363 270C371.964 283.815 372.027 253.09 363 267z"/>
<path style="fill:#6b96b7; stroke:none;" d="M370 264L371 265L370 264M380 264L381 265L380 264M384 264L384 274L385 274L384 264M389 264L389 276L393 276L393 264L392 264L392 275L390 275L389 264M397.333 264.667L397.667 265.333L397.333 264.667M401 264L400 266L401 264z"/>
<path style="fill:#e3e8ea; stroke:none;" d="M409 269L408 269C402.129 274.755 399.519 263.256 409 267C406.719 263.486 399.853 263.354 400.466 268.961C401.092 274.687 407.45 272.855 409 269z"/>
<path style="fill:#6b96b7; stroke:none;" d="M408 264L409 265L408 264M412.333 264.667L412.667 265.333L412.333 264.667M421.333 264.667L421.667 265.333L421.333 264.667M427.333 264.667L427.667 265.333L427.333 264.667M431 264L430 276C433.045 273.339 432.478 267.521 431 264M440 264L439 266L440 264z"/>
<path style="fill:#e3e8ea; stroke:none;" d="M439 270L440 270C442.05 263.27 448.846 267.055 444 272C452.974 272.213 441.239 255.962 439 270z"/>
<path style="fill:#6b96b7; stroke:none;" d="M456 264L456 269L457 269L456 264M95 265L95 271L96 271L95 265M99 265L100 266L99 265M116 265L116 276L117 276L116 265z"/>
<path style="fill:#010101; stroke:none;" d="M139.333 266.046C135.631 268.469 140.098 273.351 143.254 270.954C146.587 268.422 142.733 263.82 139.333 266.046z"/>
<path style="fill:#6b96b7; stroke:none;" d="M195 265L196 266L195 265z"/>
<path style="fill:#010101; stroke:none;" d="M197.603 266.046C194.448 268.437 198.215 273.365 201.397 270.954C204.553 268.563 200.785 263.635 197.603 266.046z"/>
<path style="fill:#6b96b7; stroke:none;" d="M207.333 265.667L207.667 266.333L207.333 265.667M234 265L235 266L234 265z"/>
<path style="fill:#e3e8ea; stroke:none;" d="M243 265C243.05 270.506 243.755 274.412 249 277L249 276L243 265z"/>
<path style="fill:#6b96b7; stroke:none;" d="M256 265L255 267L257 267L256 265M322 265L323 266L322 265z"/>
<path style="fill:#e3e8ea; stroke:none;" d="M345.333 265.667L345.667 266.333L345.333 265.667z"/>
<path style="fill:#010101; stroke:none;" d="M365.322 266.046C361.649 268.495 366.122 273.376 369.243 270.954C372.423 268.486 368.647 263.829 365.322 266.046z"/>
<path style="fill:#6b96b7; stroke:none;" d="M371 265L372 266L371 265z"/>
<path style="fill:#010101; stroke:none;" d="M402.746 266.046C399.49 268.521 403.19 273.23 406.552 270.954C410.162 268.509 405.929 263.627 402.746 266.046z"/>
<path style="fill:#e3e8ea; stroke:none;" d="M413 265C412.881 269.905 411.912 272.899 408 276L408 277C412.947 274.616 415.205 270.269 413 265z"/>
<path style="fill:#010101; stroke:none;" d="M441.603 266.046C438.484 268.418 442.208 273.831 445.397 271.15C448.432 268.597 444.883 263.553 441.603 266.046z"/>
<path style="fill:#e3e8ea; stroke:none;" d="M94 266C94.1348 270.538 94.8731 273.712 99 276L99 277L94 277C96.7672 284.898 107.671 286.602 112 279C106.353 282.349 99.9965 285.018 96 278L107 277L107 278L105 278L105 279L108 276C99.5725 276.273 97.4922 273.022 94 266z"/>
<path style="fill:#6b96b7; stroke:none;" d="M98 266L98 270L99 270L98 266M108 266L108 271L109 271L108 266M119 266L120 267L119 266z"/>
<path style="fill:#e3e8ea; stroke:none;" d="M128 266L128 271L129 271L128 266z"/>
<path style="fill:#6b96b7; stroke:none;" d="M136 266L136 271L137 271L136 266M175 266L175 267L182 267L175 266M191 266L194 274L191 266z"/>
<path style="fill:#e3e8ea; stroke:none;" d="M208 266L208 271L209 271L208 266z"/>
<path style="fill:#6b96b7; stroke:none;" d="M235 266L236 267L235 266M248 266L249 267L248 266M251 266L253 268L253 266L251 266M260 266L260 269L261 269L260 266z"/>
<path style="fill:#e3e8ea; stroke:none;" d="M286 266L286 276L282 276L282 277L287 277L286 266M292 266L292 277L297 278L298 274L297 274L293 276L292 266z"/>
<path style="fill:#6b96b7; stroke:none;" d="M321 266L313 270C315.341 274.283 318.635 274.741 323 273L323 272C319.107 272.882 316.858 272.908 314 270C318.845 270 325.186 271.465 327 266L326 266L326 269L321 266M340.333 266.667L340.667 267.333L340.333 266.667M362 266L362 271L363 271L362 266M396 266L401 276L396 266M409 266L409 271L410 271L409 266z"/>
<path style="fill:#e3e8ea; stroke:none;" d="M427 266C426.556 271.635 424.864 276.444 432 277L432 276L428 276L427 266z"/>
<path style="fill:#6b96b7; stroke:none;" d="M435 266L436 273L437 273L435 266z"/>
<path style="fill:#e3e8ea; stroke:none;" d="M79 267L76 271L76 272L79 267M145 267C143.357 271.451 141.219 271.666 137 270C139.888 274.452 146.484 272.58 145 267z"/>
<path style="fill:#6b96b7; stroke:none;" d="M183 267L184 268L183 267z"/>
<path style="fill:#e3e8ea; stroke:none;" d="M190 267L190 271L191 271L190 267z"/>
<path style="fill:#6b96b7; stroke:none;" d="M194 267L194 271L195 271L194 267M204 267L204 270L205 270L204 267M231 267L232 268L231 267M237 267L238 268L237 267z"/>
<path style="fill:#e3e8ea; stroke:none;" d="M281.333 267.667L281.667 268.333L281.333 267.667z"/>
<path style="fill:#6b96b7; stroke:none;" d="M351 267L353 276L351 267z"/>
<path style="fill:#e3e8ea; stroke:none;" d="M395 267L395 270L396 270L395 267z"/>
<path style="fill:#6b96b7; stroke:none;" d="M417 267L417 272L418 272L417 267M420 267L420 276L421 276L420 267M438.333 267.667L438.667 268.333L438.333 267.667M448 267L448 270L449 270L448 267M83.3333 268.667L83.6667 269.333L83.3333 268.667M174 268L173 276L174 268M225 268L225 273L226 273L225 268M232 268L233 269L232 268M239 268L240 269L239 268z"/>
<path style="fill:#e3e8ea; stroke:none;" d="M333 268L333 276L330 274L329 274C329.654 277.054 331.007 276.936 334 277L333 268M339 268L340 277L345 275L341 276L341 268L339 268z"/>
<path style="fill:#6b96b7; stroke:none;" d="M79.3333 269.667L79.6667 270.333L79.3333 269.667M207 269L206 273L207 273L207 269M212 269L212 273L213 273L212 269M234 269L235 270L234 269M248 269L248 270L258 270L248 269z"/>
<path style="fill:#e3e8ea; stroke:none;" d="M326 269L314 270L317 273L317 272L315 272L315 271L320 273L326 269z"/>
<path style="fill:#6b96b7; stroke:none;" d="M380 269L381 270L380 269M111 270L111 279L112 279L111 270M119 270L119 276L120 276L119 270M133.333 270.667L133.667 271.333L133.333 270.667M145.333 270.667L145.667 271.333L145.333 270.667M236 270L237 271L236 270M240 270L238 276L240 270M244.333 270.667L244.667 271.333L244.333 270.667M310.333 270.667L310.667 271.333L310.333 270.667M371.333 270.667L371.667 271.333L371.333 270.667z"/>
<path style="fill:#e3e8ea; stroke:none;" d="M379 270L380 277L384 278L385 274L384 274L381 276L379 270z"/>
<path style="fill:#6b96b7; stroke:none;" d="M439 270L441 273L439 270z"/>
<path style="fill:#e3e8ea; stroke:none;" d="M71 271L72 272L71 271z"/>
<path style="fill:#6b96b7; stroke:none;" d="M78 271L79 272L78 271M82 271L83 272L82 271M99 271L100 272L99 271M107 271L108 272L107 271M128.333 271.667L128.667 272.333L128.333 271.667M195 271L196 272L195 271M203 271L204 272L203 271z"/>
<path style="fill:#e3e8ea; stroke:none;" d="M241 271L241 274L242 274L241 271z"/>
<path style="fill:#6b96b7; stroke:none;" d="M247 271L248 272L247 271z"/>
<path style="fill:#010101; stroke:none;" d="M249 271L249 272L256 272L249 271z"/>
<path style="fill:#e3e8ea; stroke:none;" d="M281 271L282 272L281 271z"/>
<path style="fill:#010101; stroke:none;" d="M315 271L315 272L321 272L315 271z"/>
<path style="fill:#6b96b7; stroke:none;" d="M359.333 271.667L359.667 272.333L359.333 271.667z"/>
<path style="fill:#e3e8ea; stroke:none;" d="M396.333 271.667L396.667 272.333L396.333 271.667z"/>
<path style="fill:#6b96b7; stroke:none;" d="M400 271L401 272L400 271M408.333 271.667L408.667 272.333L408.333 271.667M412 271L413 272L412 271z"/>
<path style="fill:#e3e8ea; stroke:none;" d="M440 271L441 272L440 271z"/>
<path style="fill:#6b96b7; stroke:none;" d="M447 271L448 272L447 271z"/>
<path style="fill:#e3e8ea; stroke:none;" d="M72 272L72 273L75 273L72 272z"/>
<path style="fill:#6b96b7; stroke:none;" d="M75 272L75 273L78 273L75 272M96 272L97 273L96 272M100.667 272.333L101.333 272.667L100.667 272.333M106 272L107 273L106 272M137 272L138 273L137 272M144 272L145 273L144 272z"/>
<path style="fill:#e3e8ea; stroke:none;" d="M191 272L192 273L191 272z"/>
<path style="fill:#6b96b7; stroke:none;" d="M196 272L197 273L196 272M202 272L203 273L202 272z"/>
<path style="fill:#e3e8ea; stroke:none;" d="M207 272L203 276L203 277L207 272z"/>
<path style="fill:#6b96b7; stroke:none;" d="M215.667 272.333L216.333 272.667L215.667 272.333M221 272L222 273L221 272M231.667 272.333L232.333 272.667L231.667 272.333z"/>
<path style="fill:#010101; stroke:none;" d="M235 272L236 273L235 272z"/>
<path style="fill:#6b96b7; stroke:none;" d="M237 272L238 273L237 272M248 272L249 273L248 272M256 272L256 273L258 275L249 276L249 277L259 275L259 273L256 272z"/>
<path style="fill:#e3e8ea; stroke:none;" d="M258 272L259 273L258 272z"/>
<path style="fill:#6b96b7; stroke:none;" d="M301 272L302 273L301 272z"/>
<path style="fill:#e3e8ea; stroke:none;" d="M305 272L305 276L302 273L301 273C301.979 278.872 306.902 277.005 305 272M323 272L323 273L325 275L316 277L316 278L327 275L323 272z"/>
<path style="fill:#6b96b7; stroke:none;" d="M340 272L341 273L340 272M370 272L371 273L370 272M401 272L402 273L401 272M428 272L428 276L429 276L428 272z"/>
<path style="fill:#e3e8ea; stroke:none;" d="M435 272L440 277L440 276L435 272M441.667 272.333L442.333 272.667L441.667 272.333z"/>
<path style="fill:#6b96b7; stroke:none;" d="M446 272L447 273L446 272M81 273L82 274L81 273M102 273L102 274L106 274L102 273z"/>
<path style="fill:#e3e8ea; stroke:none;" d="M128 273C127.022 275.158 126.812 275.501 125 274L124 274C125.32 278.692 130.486 277.09 128 273z"/>
<path style="fill:#6b96b7; stroke:none;" d="M134 273L135 274L134 273M139 273L139 274L143 274L139 273z"/>
<path style="fill:#e3e8ea; stroke:none;" d="M187.333 273.667L187.667 274.333L187.333 273.667M192 273C194.269 276.984 197.584 277.77 202 278L202 277L192 273z"/>
<path style="fill:#6b96b7; stroke:none;" d="M198 273L198 274L202 274L198 273M213 273L214 274L213 273M218 273L218 274L221 274L218 273M230.333 273.667L230.667 274.333L230.333 273.667M234 273L234 274L237 274L234 273M245 273L246 274L245 273M250 273L250 274L255 274L250 273z"/>
<path style="fill:#e3e8ea; stroke:none;" d="M259 273L256 276L256 277C258.582 276.225 260.103 275.694 259 273M281 273L282 274L281 273z"/>
<path style="fill:#6b96b7; stroke:none;" d="M293 273L293 276L294 276L293 273M311 273L312 274L311 273M324.333 273.667L324.667 274.333L324.333 273.667M360 273L361 274L360 273M365 273L365 274L369 274L365 273z"/>
<path style="fill:#e3e8ea; stroke:none;" d="M397 273L400 276L397 273z"/>
<path style="fill:#6b96b7; stroke:none;" d="M403 273L403 274L406 274L403 273M411 273L412 274L411 273M442 273L442 274L446 274L442 273M451 273L451 276L452 276L451 273M456 273L456 276L457 276L456 273M67.3333 274.667L67.6667 275.333L67.3333 274.667M79 274L77 275L77 276L79 274M135 274L136 275L135 274M205 274L206 275L205 274M214 274L215 275L214 274M224 274L225 275L224 274z"/>
<path style="fill:#e3e8ea; stroke:none;" d="M240.333 274.667L240.667 275.333L240.333 274.667z"/>
<path style="fill:#6b96b7; stroke:none;" d="M246 274L247 275L246 274M285.333 274.667L285.667 275.333L285.333 274.667M312 274L313 275L312 274M361 274L362 275L361 274M410 274L411 275L410 274M417 274L417 276L419 276L417 274M437 274L438 275L437 274M72 275L73 276L72 275M99 275L100 276L99 275M105 275L105 276L108 276L105 275M125 275L125 276L128 276L125 275M136 275L137 276L136 275M144.667 275.333L145.333 275.667L144.667 275.333M154 275L155 276L154 275M156 275L157 276L156 275M171 275L172 276L171 275M195 275L196 276L195 275M203 275L204 276L203 275M215 275L216 276L215 275M222.667 275.333L223.333 275.667L222.667 275.333M231 275L232 276L231 275M247.667 275.333L248.333 275.667L247.667 275.333M274 275L275 276L274 275z"/>
<path style="fill:#e3e8ea; stroke:none;" d="M281 275L282 276L281 275z"/>
<path style="fill:#6b96b7; stroke:none;" d="M302 275L302 276L305 276L302 275M313.667 275.333L314.333 275.667L313.667 275.333M322.667 275.333L323.333 275.667L322.667 275.333M330 275L331 276L330 275M332 275L333 276L332 275M362 275L363 276L362 275M370 275L370 276L373 276L370 275M381 275L382 276L381 275M383 275L384 276L383 275M408.667 275.333L409.333 275.667L408.667 275.333M439 275L440 276L439 275M446.667 275.333L447.333 275.667L446.667 275.333M102.667 276.333L103.333 276.667L102.667 276.333M108 276L109 277L108 276M138 276L138 277L143 277L138 276z"/>
<path style="fill:#e3e8ea; stroke:none;" d="M143 276L143 277L150 278L143 276z"/>
<path style="fill:#6b96b7; stroke:none;" d="M197 276L197 277L203 277L197 276M216 276L216 277L221 277L216 276M232 276L232 277L237 277L232 276z"/>
<path style="fill:#e3e8ea; stroke:none;" d="M237 276L237 277L240 277L237 276z"/>
<path style="fill:#6b96b7; stroke:none;" d="M315 276L315 277L321 277L315 276M364 276L364 277L369 277L364 276z"/>
<path style="fill:#e3e8ea; stroke:none;" d="M400 276L400 277L407 278L407 277L400 276z"/>
<path style="fill:#6b96b7; stroke:none;" d="M402 276L402 277L408 277L402 276M440 276L440 277L446 277L440 276z"/>
<path style="fill:#010101; stroke:none;" d="M100.667 277.333L101.333 277.667L100.667 277.333M102 278L102 279L107 278L102 278z"/>
<path style="fill:#e3e8ea; stroke:none;" d="M139 277L139 278L143 278L139 277M233 277L233 278L237 278L233 277M250 277L250 278L256 278L250 277M441 277L441 278L445 278L441 277z"/>
<path style="fill:#6b96b7; stroke:none;" d="M96 281L100 279C97.5878 277.645 96.5676 278.351 96 281M107 278L108 279L107 278M100 279L100 280L107 280L100 279M110 279L111 280L110 279M109 280L110 281L109 280M98 281L99 282L98 281M107.667 281.333L108.333 281.667L107.667 281.333M100 282L100 283L107 283L100 282z"/>
</svg>
