<?xml version="1.0" standalone="no"?>
<!DOCTYPE svg PUBLIC "-//W3C//DTD SVG 20010904//EN"
 "http://www.w3.org/TR/2001/REC-SVG-20010904/DTD/svg10.dtd">
<svg version="1.0" xmlns="http://www.w3.org/2000/svg"
 width="512.000000pt" height="321.000000pt" viewBox="0 0 512.000000 321.000000"
 preserveAspectRatio="xMidYMid meet">

<g transform="translate(0.000000,321.000000) scale(0.100000,-0.100000)"
fill="#000000" stroke="none">
<path d="M4700 2770 c-103 -6 -155 -26 -209 -79 -54 -52 -69 -100 -101 -303
-32 -203 -65 -406 -126 -778 -20 -124 -39 -238 -41 -255 -5 -31 -68 -423 -79
-483 l-5 -34 138 4 c109 2 146 7 175 21 80 40 148 135 168 235 9 42 94 559
165 997 14 88 43 268 65 401 22 132 40 250 40 262 0 25 -3 25 -190 12z"/>
<path d="M2838 2751 c-67 -26 -104 -56 -134 -106 -37 -64 -36 -61 -84 -375
-16 -107 -52 -337 -80 -510 -27 -173 -66 -414 -85 -535 -19 -121 -39 -244 -45
-274 -20 -108 -28 -101 118 -101 146 0 184 12 247 76 59 61 85 128 112 298 14
83 32 198 42 256 l17 105 303 5 c167 3 307 3 311 0 5 -3 0 -62 -11 -130 -11
-69 -31 -202 -44 -297 -14 -95 -30 -195 -35 -224 -18 -96 -27 -89 118 -89 120
0 132 2 183 28 63 31 108 86 138 167 12 32 42 194 71 378 27 177 72 462 100
632 27 171 63 394 80 497 16 102 30 193 30 202 0 14 -16 16 -113 16 -130 0
-192 -15 -254 -60 -71 -53 -87 -100 -133 -399 -22 -146 -42 -267 -45 -269 -4
-5 -617 -4 -622 1 -4 4 38 283 76 514 17 99 31 188 31 197 0 25 -227 22 -292
-3z"/>
<path d="M992 2101 c-37 -10 -77 -43 -97 -81 -20 -38 -56 -228 -135 -705 -38
-236 -73 -440 -75 -452 l-5 -23 368 0 369 0 39 29 c61 44 181 168 244 251 104
139 164 255 202 395 22 82 33 273 21 360 l-9 60 -12 -115 c-22 -204 -80 -339
-189 -440 -127 -116 -270 -179 -429 -188 -50 -2 -94 -1 -97 4 -3 5 28 209 69
453 41 244 73 445 71 447 -7 8 -307 12 -335 5z"/>
<path d="M880 650 c0 -11 7 -20 15 -20 8 0 15 9 15 20 0 11 -7 20 -15 20 -8 0
-15 -9 -15 -20z"/>
<path d="M1164 659 c-10 -17 13 -36 27 -22 12 12 4 33 -11 33 -5 0 -12 -5 -16
-11z"/>
<path d="M1256 663 c-3 -3 -6 -16 -6 -28 0 -11 -5 -26 -12 -33 -8 -8 -8 -15 0
-24 6 -8 12 -37 14 -66 4 -70 22 -71 26 -2 2 30 10 62 18 71 13 15 13 17 -1
22 -8 4 -15 17 -15 31 0 25 -12 40 -24 29z"/>
<path d="M1546 663 c-3 -3 -6 -53 -6 -110 0 -85 3 -103 15 -103 12 0 15 18 15
104 0 96 -7 126 -24 109z"/>
<path d="M3894 659 c-10 -17 13 -36 27 -22 12 12 4 33 -11 33 -5 0 -12 -5 -16
-11z"/>
<path d="M4573 663 c-16 -6 -18 -180 -3 -203 16 -26 25 0 28 90 4 90 -3 121
-25 113z"/>
<path d="M672 558 l3 -103 52 -3 c45 -3 57 1 77 21 34 34 42 86 20 132 -19 42
-46 55 -110 55 l-45 0 3 -102z m111 54 c18 -16 24 -86 8 -110 -4 -7 -24 -17
-45 -22 -30 -7 -36 -5 -37 9 0 9 -2 39 -4 66 -5 71 0 83 33 77 15 -2 35 -11
45 -20z"/>
<path d="M1710 561 c0 -62 4 -102 11 -107 15 -9 30 15 28 46 -2 42 0 46 24 47
53 3 62 -4 62 -48 0 -66 21 -59 28 9 7 81 -2 152 -19 152 -10 0 -14 -13 -14
-40 0 -40 0 -40 -39 -40 -39 0 -40 1 -43 37 -2 27 -8 39 -20 41 -16 3 -18 -7
-18 -97z"/>
<path d="M2740 555 c0 -87 3 -105 15 -105 12 0 15 18 15 105 0 87 -3 105 -15
105 -12 0 -15 -18 -15 -105z"/>
<path d="M3020 637 c0 -13 -5 -28 -12 -35 -8 -8 -8 -15 0 -24 6 -8 12 -38 14
-68 2 -31 8 -55 16 -58 9 -3 12 14 12 61 0 53 3 66 18 72 16 6 16 7 0 16 -10
6 -18 21 -18 34 0 16 -6 25 -15 25 -9 0 -15 -9 -15 -23z"/>
<path d="M3810 637 c0 -13 -5 -28 -12 -35 -9 -9 -9 -15 0 -24 7 -7 12 -38 12
-70 0 -45 3 -58 15 -58 12 0 15 13 15 60 0 43 4 61 16 68 14 8 14 10 0 21 -9
8 -16 24 -16 37 0 15 -6 24 -15 24 -9 0 -15 -9 -15 -23z"/>
<path d="M887 603 c-4 -3 -7 -39 -7 -80 0 -58 3 -73 15 -73 12 0 15 16 15 80
0 73 -6 91 -23 73z"/>
<path d="M998 596 c-38 -19 -51 -58 -34 -100 16 -38 48 -53 91 -42 26 7 33 -6
16 -33 -7 -10 -21 -12 -55 -8 -44 6 -63 -4 -30 -17 34 -13 91 -6 109 14 20 22
33 155 18 176 -12 17 -88 23 -115 10z m70 -32 c27 -19 28 -49 2 -71 -27 -23
-45 -24 -68 -2 -23 20 -20 56 6 77 21 16 33 15 60 -4z"/>
<path d="M1377 603 c-20 -5 -47 -52 -47 -81 0 -11 9 -31 21 -45 18 -24 26 -27
80 -25 34 1 59 6 60 12 1 21 1 101 0 118 -1 12 -9 17 -28 16 -16 -1 -37 1 -48
4 -11 3 -28 3 -38 1z m64 -33 c39 -21 16 -99 -30 -100 -23 0 -51 31 -51 56 0
43 40 65 81 44z"/>
<path d="M1957 594 c-33 -18 -47 -49 -40 -87 16 -80 138 -74 159 8 8 31 -17
72 -52 85 -32 12 -33 12 -67 -6z m73 -34 c11 -11 20 -27 20 -35 0 -19 -36 -55
-55 -55 -8 0 -24 9 -36 21 -22 22 -19 55 9 77 22 17 39 15 62 -8z"/>
<path d="M2328 599 c-28 -16 -22 -56 10 -76 48 -31 52 -60 5 -49 -29 8 -51 -3
-32 -15 25 -16 67 -10 83 12 18 27 11 46 -25 65 -37 19 -40 49 -4 40 28 -7 37
17 9 28 -21 8 -26 7 -46 -5z"/>
<path d="M2470 582 c-35 -36 -38 -69 -9 -106 18 -23 27 -27 67 -24 27 2 47 8
50 17 3 10 -3 12 -27 6 -41 -9 -71 2 -71 26 0 17 7 19 60 19 56 0 60 1 60 23
0 30 -27 55 -68 63 -26 5 -36 1 -62 -24z m88 -14 c21 -21 13 -28 -33 -28 -32
0 -45 4 -45 14 0 25 57 35 78 14z"/>
<path d="M2890 600 c-8 -5 -24 -7 -36 -4 -19 5 -22 0 -28 -45 -7 -51 0 -101
14 -101 12 0 20 28 20 70 0 43 19 65 50 55 17 -5 20 -15 20 -60 0 -49 12 -76
27 -61 3 3 5 32 4 63 -1 45 -6 62 -22 76 -24 20 -28 20 -49 7z"/>
<path d="M3138 595 c-38 -21 -48 -77 -21 -113 17 -23 28 -27 68 -27 28 0 50 5
52 12 3 8 -8 10 -34 6 -24 -3 -45 1 -57 10 -31 23 -10 37 55 37 51 0 59 2 59
19 0 51 -72 84 -122 56z m79 -26 c20 -20 4 -36 -30 -31 -54 6 -61 10 -47 27
15 18 61 20 77 4z"/>
<path d="M3333 603 l-33 -4 0 -75 c0 -59 3 -74 15 -74 12 0 15 13 15 61 0 52
3 62 20 66 11 3 20 12 20 19 0 8 -1 13 -2 12 -2 0 -18 -3 -35 -5z"/>
<path d="M3419 599 c-15 -9 -7 -142 9 -147 8 -2 12 11 12 45 0 56 17 87 46 81
15 -3 20 -15 25 -61 6 -58 13 -76 26 -64 12 13 8 126 -5 139 -13 13 -96 18
-113 7z"/>
<path d="M3632 600 c-43 -18 -56 -96 -20 -129 17 -16 34 -20 80 -19 l58 2 0
73 0 73 -27 -2 c-16 -1 -37 1 -48 5 -11 3 -30 1 -43 -3z m69 -30 c13 -8 19
-21 19 -46 0 -58 -62 -73 -93 -22 -14 21 -1 66 21 71 28 8 33 7 53 -3z"/>
<path d="M3897 597 c-5 -15 2 -140 9 -147 11 -10 20 23 22 84 2 48 -1 65 -12
69 -8 3 -16 0 -19 -6z"/>
<path d="M4015 599 c-47 -26 -60 -83 -29 -127 23 -34 95 -31 123 4 27 34 27
67 -1 98 -27 30 -65 40 -93 25z m67 -36 c32 -28 22 -74 -19 -87 -36 -11 -63
10 -63 49 0 51 45 72 82 38z"/>
<path d="M4247 603 c-4 -3 -23 -6 -42 -5 l-36 1 3 -65 c1 -35 6 -70 10 -77 13
-20 28 13 28 65 0 37 4 48 19 53 35 11 51 -4 51 -50 0 -48 8 -75 21 -75 5 0 9
29 9 64 0 56 -3 67 -22 80 -25 18 -32 19 -41 9z"/>
<path d="M4403 600 c-45 -18 -58 -95 -23 -130 16 -16 32 -20 73 -18 28 1 55 7
59 12 4 6 8 39 8 73 l0 63 -32 -2 c-18 -1 -40 1 -48 5 -8 3 -25 2 -37 -3z m66
-34 c17 -20 10 -77 -11 -89 -12 -8 -24 -7 -42 1 -21 9 -26 19 -26 46 0 49 51
76 79 42z"/>
<path d="M1165 570 c-7 -34 3 -120 15 -120 12 0 21 51 19 104 -3 53 -24 63
-34 16z"/>
<path d="M2123 584 c-10 -26 6 -108 24 -121 28 -21 80 -16 97 9 21 30 22 128
1 128 -15 0 -28 -34 -25 -66 4 -36 0 -52 -15 -58 -33 -12 -45 4 -45 65 0 46
-3 59 -15 59 -9 0 -18 -7 -22 -16z"/>
</g>
</svg>
